<svg width="677" height="199" viewBox="0 0 677 199" fill="none" xmlns="http://www.w3.org/2000/svg">
<g clip-path="url(#clip0_67_5826)">
<path d="M93.352 52.1367H63.9197L22.3979 96.3452V52.1367H0V160.853H22.3979V123.846L34.4957 111.896L66.6989 160.853H94.3334L50.5189 95.0321L93.352 52.1367Z" fill="#193C4E"/>
<path d="M131.443 78.168C105.615 78.168 96.461 89.7879 96.1312 106.495H115.915C116.896 99.2935 120.822 94.5448 130.462 94.5448C138.799 94.5448 144.028 97.6583 144.028 102.894C144.028 108.461 141.084 110.591 130.462 112.061C109.045 115.01 93.517 117.628 93.517 140.876C93.517 153.974 102.019 162.976 120.327 162.976C131.113 162.976 139.616 159.21 144.687 153.644C144.852 156.096 145.339 158.88 145.999 160.845H165.782V109.931C165.782 89.6309 156.95 78.168 131.452 78.168H131.443ZM144.358 130.23C144.193 139.728 136.02 147.747 125.069 147.747C118.364 147.747 114.769 144.799 114.769 138.745C114.769 131.866 118.694 128.43 130.792 126.142C138.643 124.672 142.395 123.524 144.522 121.394L144.358 130.239V130.23Z" fill="#193C4E"/>
<path d="M196.023 58.5207H175.093V130.561C175.093 147.912 184.411 162.976 207.956 162.976C231.5 162.976 240.489 147.747 240.489 130.726V107.8H220.705V128.76C220.705 138.745 216.78 144.476 208.277 144.476C199.775 144.476 196.015 138.58 196.015 128.43V95.3541H240.48V80.2904H196.015V58.5124L196.023 58.5207Z" fill="#193C4E"/>
<path d="M284.963 78.168C259.134 78.168 249.981 89.7879 249.651 106.495H269.434C270.416 99.2935 274.341 94.5448 283.981 94.5448C292.319 94.5448 297.547 97.6583 297.547 102.894C297.547 108.461 294.603 110.591 283.981 112.061C262.565 115.01 247.036 117.628 247.036 140.876C247.036 153.974 255.539 162.976 273.846 162.976C284.633 162.976 293.135 159.21 298.207 153.644C298.372 156.096 298.858 158.88 299.518 160.845H319.302V109.931C319.302 89.6309 310.47 78.168 284.971 78.168H284.963ZM297.877 130.23C297.712 139.728 289.54 147.747 278.588 147.747C271.884 147.747 268.288 144.799 268.288 138.745C268.288 131.866 272.214 128.43 284.311 126.142C292.162 124.672 295.923 123.524 298.042 121.394L297.877 130.239V130.23Z" fill="#193C4E"/>
<path d="M371.61 78.168C361.805 78.168 354.284 81.9339 349.212 90.1182L349.047 80.2987H328.612V199H349.542V150.373C355.595 158.888 363.438 162.976 373.408 162.976C394.173 162.976 406.436 145.781 406.436 121.394C406.436 94.2145 391.889 78.168 371.61 78.168ZM366.539 144.807C354.771 144.807 348.718 136.127 348.718 118.61C348.718 105.025 356.568 95.5276 366.704 95.5276C376.839 95.5276 384.854 105.512 384.854 119.924C384.854 136.457 378.966 144.807 366.547 144.807H366.539Z" fill="#193C4E"/>
<path d="M457.112 78.168C447.306 78.168 439.785 81.9339 434.714 90.1182L434.549 80.2987H414.114V199H435.043V150.373C441.097 158.888 448.939 162.976 458.909 162.976C479.674 162.976 491.937 145.781 491.937 121.394C491.937 94.2145 477.39 78.168 457.112 78.168ZM452.04 144.807C440.272 144.807 434.219 136.127 434.219 118.61C434.219 105.025 442.07 95.5276 452.205 95.5276C462.34 95.5276 470.356 105.512 470.356 119.924C470.356 136.457 464.468 144.807 452.048 144.807H452.04Z" fill="#193C4E"/>
<path d="M550.95 126.795C550.95 137.44 545.227 145.129 534.44 145.129C525.451 145.129 520.875 140.215 520.875 130.065V80.2904H499.623V133.336C499.623 151.017 510.904 162.968 526.928 162.968C538.044 162.968 546.381 158.714 551.94 149.539V160.837H572.045V80.2987H550.958V126.795H550.95Z" fill="#193C4E"/>
<path d="M602.615 50.8318H581.364V160.853H602.615V50.8318Z" fill="#193C4E"/>
<path d="M677 95.3624V80.2987H632.534V58.5207H611.604V130.561C611.604 147.912 620.923 162.976 644.467 162.976C668.011 162.976 677 147.747 677 130.726V107.8H657.216V128.76C657.216 138.745 653.291 144.477 644.788 144.477C636.286 144.477 632.526 138.58 632.526 128.43V95.3542H676.992L677 95.3624Z" fill="#193C4E"/>
<path d="M256.586 58.9666C260.446 62.0719 266.103 61.4607 269.22 57.6039C270.531 55.9852 302.033 18.0121 369.986 18.0121C437.938 18.0121 469.448 55.9852 470.735 57.5792C472.508 59.809 475.13 60.9735 477.769 60.9735C479.732 60.9735 481.711 60.3293 483.369 59.0079C487.253 55.9109 487.888 50.2372 484.795 46.3557C483.286 44.4645 447.001 0.00823975 369.986 0.00823975C292.97 0.00823975 256.685 44.4645 255.176 46.3557C252.083 50.2372 252.727 55.8696 256.586 58.9749V58.9666Z" fill="#193C4E"/>
</g>
<defs>
<clipPath id="clip0_67_5826">
<rect width="677" height="199" fill="white"/>
</clipPath>
</defs>
</svg>
